<?xml version="1.0" encoding="UTF-8"?>
<svg id="Layer_1" xmlns="http://www.w3.org/2000/svg" version="1.1" xmlns:xlink="http://www.w3.org/1999/xlink" viewBox="0 0 1000 1000">
  <!-- Generator: Adobe Illustrator 29.0.0, SVG Export Plug-In . SVG Version: 2.1.0 Build 186)  -->
  <defs>
    <style>
      .st0 {
        font-size: 39.99px;
      }

      .st0, .st1 {
        font-family: Nikkyou-Sans, 'Nikkyou Sans';
      }

      .st0, .st1, .st2, .st3 {
        fill: #fff;
      }

      .st1 {
        font-size: 40px;
      }

      .st1, .st3, .st4 {
        display: none;
      }
    </style>
    <path id="path" d="M762.06,527.17c-27.93,103.5-134.48,164.77-237.98,136.84-103.5-27.93-164.77-134.48-136.84-237.98,27.93-103.5,134.48-164.77,237.98-136.84,103.5,27.93,164.77,134.48,136.84,237.98Z"/>
    <path id="path1" d="M759.58,526.48c27.56-102.14-32.9-207.29-135.04-234.85-102.14-27.56-207.29,32.9-234.85,135.04-27.56,102.14,32.9,207.29,135.04,234.85,102.14,27.56,207.29-32.9,234.85-135.04Z"/>
  </defs>
  <path class="st3" d="M574.27,263.33c-117.68,0-213.08,95.4-213.08,213.08s95.4,213.08,213.08,213.08,213.08-95.4,213.08-213.08-95.4-213.08-213.08-213.08ZM574.27,644.76c-92.98,0-168.36-75.38-168.36-168.36s75.38-168.36,168.36-168.36,168.36,75.38,168.36,168.36-75.38,168.36-168.36,168.36Z"/>
  <path class="st2" d="M927.48,460.94c-2.92-32.33-9.43-63.66-19.12-93.53-3.69-11.38-7.86-22.56-12.45-33.5-11.72-27.94-26.33-54.37-43.45-78.93-1.52-2.19-3.06-4.36-4.62-6.51l-77.89,46.27c.81,1.06,1.62,2.11,2.42,3.18,17.87,24.01,32.61,50.48,43.67,78.8,4.85,12.47,9.02,25.28,12.41,38.44,6.97,27.11,10.7,55.54,10.7,84.85,0,4.63-.1,9.27-.28,13.86-7.27,180.88-156.2,325.27-338.87,325.27-53.26,0-103.68-12.29-148.52-34.16l288.41-172.25,86.72-51.79v-258.47l-86.72,46.47-272.31,145.97v-62.08l362.36-202.11,81.87-45.67c-22.08-23.35-46.75-44.22-73.57-62.13-68.17-45.57-150.1-72.14-238.23-72.14-237.06,0-429.24,192.18-429.24,429.24,0,5.04.08,10.03.26,15.03,1.13,32.84,5.94,64.76,14.06,95.32,4.31,16.26,9.55,32.13,15.67,47.56,11.14,28.2,25.2,54.93,41.8,79.81.68,1.02,1.39,2.03,2.08,3.05l78.94-44.3c-.37-.52-.76-1.03-1.12-1.55-17.22-24.46-31.28-51.31-41.6-79.93-5.84-16.24-10.5-33.04-13.84-50.32-4.03-20.93-6.14-42.54-6.14-64.66,0-12.21.64-24.27,1.91-36.14,18.03-170.32,162.12-303.01,337.22-303.01,52.48,0,102.17,11.93,146.51,33.2l-278.94,155.57-89.12,49.72v265.54l89.12-47.76,272.31-145.97v56.61l-370.23,221.12-79.91,47.72c22,23,46.53,43.57,73.16,61.24,67.93,45.12,149.45,71.39,237.1,71.39,237.06,0,429.24-192.18,429.24-429.24,0-13.15-.58-26.19-1.75-39.06Z"/>
  <text>
    <textPath startOffset="14.57%" xlink:href="#path"><tspan class="st1"><tspan x="0" y="0">SHELVEY ELMO DIAS</tspan></tspan>
    </textPath></text>
  <g class="st4">
    <text>
      <textPath startOffset="52.45%" xlink:href="#path1"><tspan class="st0"><tspan x="0" y="0">SHELVEY ELMO DIAS</tspan></tspan>
      </textPath></text>
  </g>
</svg>