<svg xmlns="http://www.w3.org/2000/svg" style="display: none;">
  <defs>
    <symbol id="send" width="24" height="24" viewBox="0 0 24 24">
      <path d="M2.01 21 23 12 2.01 3 2 10l15 2-15 2 .01 7Z"/>
    </symbol>
    <symbol id="arrow-right" width="24" height="24" viewBox="0 0 24 24">
      <path d="m14.2 4.8 6.5 6.5.71.7-.7.7-6.5 6.5-1.42-1.4 4.8-4.8H3v-2h14.59l-4.8-4.8 1.42-1.4Z"/>
    </symbol>
    <symbol id="chevron-right" width="24" height="24" viewBox="0 0 24 24">
      <path d="m13.59 12-5.8-5.8 1.42-1.4 6.5 6.5.7.7-.7.7-6.5 6.5-1.42-1.4 5.8-5.8Z"/>
    </symbol>
    <symbol id="github" width="24" height="24" viewBox="0 0 24 24">
      <path d="M12 2a10 10 0 0 0-3.16 19.5c.5.08.66-.23.66-.5v-1.69c-2.77.6-3.36-1.34-3.36-1.34-.46-1.16-1.11-1.47-1.11-1.47-.91-.62.07-.6.07-.6 1 .07 1.53 1.03 1.53 1.03.87 1.52 2.34 1.07 2.91.83.09-.65.35-1.09.63-1.34-2.22-.25-4.55-1.11-4.55-4.92 0-1.11.38-2 1.03-2.71-.1-.25-.45-1.29.1-2.64 0 0 .84-.27 2.75 1.02a9.42 9.42 0 0 1 5 0c1.91-1.29 2.75-1.02 2.75-1.02.55 1.35.2 2.39.1 2.64.65.71 1.03 1.6 1.03 2.71 0 3.82-2.34 4.66-4.57 4.91.36.31.69.92.69 1.85V21c0 .27.16.59.67.5a10.03 10.03 0 0 0 3.9-16.57A10 10 0 0 0 12 2Z"/>
    </symbol>
    <symbol id="menu" width="24" height="24" viewBox="0 0 24 24">
      <path d="M22 6H2V4h20v2ZM2 13h16v-2H2v2Zm0 7h20v-2H2v2Z"/>
    </symbol>
    <symbol id="figma" width="24" height="24" viewBox="0 0 24 24">
      <path fill-rule="evenodd" d="M15 10a2 2 0 1 0 0 4 2 2 0 0 0 0-4Zm-2 5.46A4 4 0 0 0 17.65 9a4.01 4.01 0 0 0 .18-5.83A4 4 0 0 0 15 2H9a4 4 0 0 0-2.65 7 4.01 4.01 0 0 0 0 6A3.98 3.98 0 0 0 5 18a4 4 0 1 0 8 0v-2.54ZM11 16H9a2 2 0 1 0 2 2v-2ZM9 8h2V4H9a2 2 0 1 0 0 4Zm0 2a2 2 0 1 0 0 4h2v-4H9Zm4-2V4h2a2 2 0 0 1 0 4h-2Z"/>
    </symbol>
    <symbol id="facebook" width="24" height="24" viewBox="0 0 24 24">
      <path d="M9.101 23.691v-7.98H6.627v-3.667h2.474v-1.58c0-4.085 1.848-5.978 5.858-5.978.401 0 .955.042 1.468.103a8.68 8.68 0 0 1 1.141.195v3.325a8.623 8.623 0 0 0-.653-.036 26.805 26.805 0 0 0-.733-.009c-.707 0-1.259.096-1.675.309a1.686 1.686 0 0 0-.679.622c-.258.42-.374.995-.374 1.752v1.297h3.919l-.386 2.103-.287 1.564h-3.246v8.245C19.396 23.238 24 18.179 24 12.044c0-6.627-5.373-12-12-12s-12 5.373-12 12c0 5.628 3.874 10.35 9.101 11.647Z"/>
    </symbol>
    <symbol id="instagram" width="24" height="24" viewBox="0 0 24 24">
      <path d="M7.0301.084c-1.2768.0602-2.1487.264-2.911.5634-.7888.3075-1.4575.72-2.1228 1.3877-.6652.6677-1.075 1.3368-1.3802 2.127-.2954.7638-.4956 1.6365-.552 2.914-.0564 1.2775-.0689 1.6882-.0626 4.947.0062 3.2586.0206 3.6671.0825 4.9473.061 1.2765.264 2.1482.5635 2.9107.308.7889.72 1.4573 1.388 2.1228.6679.6655 1.3365 1.0743 2.1285 1.38.7632.295 1.6361.4961 2.9134.552 1.2773.056 1.6884.069 4.9462.0627 3.2578-.0062 3.668-.0207 4.9478-.0814 1.28-.0607 2.147-.2652 2.9098-.5633.7889-.3086 1.4578-.72 2.1228-1.3881.665-.6682 1.0745-1.3378 1.3795-2.1284.2957-.7632.4966-1.636.552-2.9124.056-1.2809.0692-1.6898.063-4.948-.0063-3.2583-.021-3.6668-.0817-4.9465-.0607-1.2797-.264-2.1487-.5633-2.9117-.3084-.7889-.72-1.4568-1.3876-2.1228C21.2982 1.33 20.628.9208 19.8378.6165 19.074.321 18.2017.1197 16.9244.0645 15.6471.0093 15.236-.005 11.977.0014 8.718.0076 8.31.0215 7.0301.0839m.1402 21.6932c-1.17-.0509-1.8053-.2453-2.2287-.408-.5606-.216-.96-.4771-1.3819-.895-.422-.4178-.6811-.8186-.9-1.378-.1644-.4234-.3624-1.058-.4171-2.228-.0595-1.2645-.072-1.6442-.079-4.848-.007-3.2037.0053-3.583.0607-4.848.05-1.169.2456-1.805.408-2.2282.216-.5613.4762-.96.895-1.3816.4188-.4217.8184-.6814 1.3783-.9003.423-.1651 1.0575-.3614 2.227-.4171 1.2655-.06 1.6447-.072 4.848-.079 3.2033-.007 3.5835.005 4.8495.0608 1.169.0508 1.8053.2445 2.228.408.5608.216.96.4754 1.3816.895.4217.4194.6816.8176.9005 1.3787.1653.4217.3617 1.056.4169 2.2263.0602 1.2655.0739 1.645.0796 4.848.0058 3.203-.0055 3.5834-.061 4.848-.051 1.17-.245 1.8055-.408 2.2294-.216.5604-.4763.96-.8954 1.3814-.419.4215-.8181.6811-1.3783.9-.4224.1649-1.0577.3617-2.2262.4174-1.2656.0595-1.6448.072-4.8493.079-3.2045.007-3.5825-.006-4.848-.0608M16.953 5.5864A1.44 1.44 0 1 0 18.39 4.144a1.44 1.44 0 0 0-1.437 1.4424M5.8385 12.012c.0067 3.4032 2.7706 6.1557 6.173 6.1493 3.4026-.0065 6.157-2.7701 6.1506-6.1733-.0065-3.4032-2.771-6.1565-6.174-6.1498-3.403.0067-6.156 2.771-6.1496 6.1738M8 12.0077a4 4 0 1 1 4.008 3.9921A3.9996 3.9996 0 0 1 8 12.0077"/>
    </symbol>
    <symbol id="copy" width="24" height="24" viewBox="0 0 24 24">
      <path d="M3 2h12v4H7v10H3V2Zm6 20V8h12v11l-3 3H9Z"/>
    </symbol>
    <symbol id="error" width="24" height="24" viewBox="0 0 24 24">
      <path d="M19.7 19H4.3L12 5.07 19.7 19ZM11.12 2.52l-9.39 17L2.61 21h18.78l.88-1.48-9.4-17h-1.75ZM11 14v-4h2v4h-2Zm0 3v-2h2v2h-2Z"/>
    </symbol>
    <symbol id="arrow-left" width="24" height="24" viewBox="0 0 24 24">
      <path d="m9.8 19.2-6.5-6.5-.71-.7.7-.7 6.5-6.5 1.42 1.4L6.4 11H21v2H6.41l4.8 4.8-1.42 1.4Z"/>
    </symbol>
    <symbol id="check" width="24" height="24" viewBox="0 0 24 24">
      <path d="m20.2 7.2-10 10-.7.71-.7-.7-5-5 1.4-1.42 4.3 4.3 9.3-9.3 1.4 1.42Z"/>
    </symbol>
    <symbol id="link" width="24" height="24" viewBox="0 0 24 24">
      <path d="M9 4 8 5v2h2V6h10v7H10v-2H8v3l1 1h12l1-1V5l-1-1H9Zm2 4H3L2 9v9l1 1h12l1-1v-2h-2v1H4v-7h10v2h2V9l-1-1h-4Z"/>
    </symbol>
    <symbol id="close" width="24" height="24" viewBox="0 0 24 24">
      <path d="M19 6.41 17.59 5 12 10.59 6.41 5 5 6.41 10.59 12 5 17.59 6.41 19 12 13.41 17.59 19 19 17.59 13.41 12 19 6.41Z"/>
    </symbol>
    <symbol id="pause" width="24" height="24" viewBox="0 0 24 24">
      <path d="M6 19h4V5H6v14Zm8-14v14h4V5h-4Z"/>
    </symbol>
    <symbol id="play" width="24" height="24" viewBox="0 0 24 24">
      <path d="M8 5v14l11-7L8 5Z"/>
    </symbol>
    <symbol id="bluesky" width="24" height="24" viewBox="0 0 24 24">
      <path d="M6.34 3.78C8.63 5.51 11.09 9.01 12 10.9v4.96c0-.1-.04.02-.13.27-.47 1.4-2.32 6.83-6.54 2.49-2.22-2.29-1.19-4.58 2.86-5.27-2.32.4-4.92-.26-5.63-2.82C2.35 9.8 2 5.25 2 4.64c0-3.07 2.68-2.1 4.34-.86Zm11.32 0C15.37 5.51 12.91 9.01 12 10.9v4.96c0-.1.04.02.13.27.47 1.4 2.32 6.83 6.54 2.49 2.22-2.29 1.19-4.58-2.86-5.27 2.32.4 4.92-.26 5.63-2.82.21-.73.56-5.27.56-5.88 0-3.07-2.68-2.1-4.34-.86Z"/>
    </symbol>
  </defs>
</svg>