<?xml version="1.0" encoding="utf-8"?>
<!-- Generator: Adobe Illustrator 24.3.0, SVG Export Plug-In . SVG Version: 6.00 Build 0)  -->
<svg version="1.1" id="Layer_1" xmlns="http://www.w3.org/2000/svg" xmlns:xlink="http://www.w3.org/1999/xlink" x="0px" y="0px"
	 viewBox="0 0 650 295" style="enable-background:new 0 0 650 295;" xml:space="preserve">
<style type="text/css">
	.st0{fill-rule:evenodd;clip-rule:evenodd;fill:#FFEBA7;}
	.st1{fill:#FFEBA7;}
</style>
<path class="st0" d="M162.4,208.5"/>
<g>
	<path class="st1" d="M15.7,220.3c-4.6-1.1-8.1-2.9-10.7-5.2c-2.6-2.3-3.9-5.2-3.9-8.6c0-6.4,4.8-12.3,14.4-17.8
		c9.7-5.4,22.9-9.2,39.8-11.3c3.1-0.2,4.8-0.6,4.8-0.8c0-0.2-3.2-2.4-9.7-6.7s-11.3-7.2-14.7-9.2c-8.4-4.8-15-9.1-20-12.8
		c-4.9-3.8-8.7-7.9-11.2-12.4c-2.7-4.6-3.9-9.8-3.9-15.9c0-6.3,1.7-12.9,5-19.9c3.3-6.9,7.9-13.7,13.7-20.2
		c5.8-6.6,12.4-12.4,19.9-17.8c11.2-8,23.4-14.5,36.6-19.4s24.9-7.3,34.9-7.3c8.8,0,15.7,2.2,20.7,6.6s7.4,10,7.4,17
		c0,2.9-0.7,6.6-2.1,11c-1.3,4.4-3,8.3-4.9,11.7c-1.9,3.3-3.6,5-5,5c-0.9,0-1.8-0.4-2.7-1.3c-0.9-0.9-1.3-1.9-1.3-2.9
		c0-0.7,0.2-1.6,0.6-2.7c0.3-1.1,0.9-2.6,1.7-4.6c1.3-3.2,2.3-6,3.1-8.4c0.7-2.4,1.1-4.8,1.1-7.1c0-3.9-0.9-6.8-2.8-8.7
		s-3.8-3.2-5.7-4c-1.2-0.6-2.4-0.8-3.6-0.9s-3.6-0.1-7.6-0.1c-4.6,0-8.1,0.2-10.5,0.6c-2.4,0.3-6.1,1.2-11.1,2.6
		C75,52.8,62.3,58.6,50.3,66.4C38.2,74.1,28.4,82.8,21,92.5c-7.4,9.6-11.1,18.9-11.1,28c0,3.8,0.9,7.2,2.6,10.2s4.6,6,8.6,9.2
		c4,3.1,9.8,6.9,17.3,11.2c9.9,5.7,17.3,10.3,22.2,13.8c4.9,3.4,9.3,7.1,13.3,10.9c20.1,0.1,34.6,0.3,43.5,0.6s14.4,0.7,16.5,1.3
		c1,0.3,1.8,0.9,2.4,1.7c0.6,0.8,0.9,1.7,0.9,2.7c0,0.8-0.1,1.6-0.4,2.1c-0.3,0.6-0.9,1.3-1.7,2.2c-0.2,0.2-0.4,0.4-0.6,0.7
		c-5,0-10.2-0.1-15.5-0.3c-9.3-0.6-22-0.8-37.8-0.8c0.1,0.8,0.4,1.8,0.9,3.1c0.7,2.4,1,4.3,1,5.6c0,4.7-2.1,9.1-6.4,13.3
		c-4.3,4.2-10.3,7.7-18.2,10.3c-7.9,2.7-16.9,3.9-27.2,3.9C25.4,222,20.2,221.4,15.7,220.3z M50.6,209.6c6.4-1.6,11.9-3.6,16.3-6.2
		c4.4-2.6,6.8-5.3,6.8-8.3c0-2.4-0.4-4.6-1.3-6.1c-0.9-1.6-2.8-2.3-5.7-2.3c-4.9,0-10.9,0.7-18.1,2s-14,3.2-20.4,5.6
		s-11.2,5-14.2,7.9c-1.9,1.8-2.8,3.1-2.8,4c0,1.2,1.1,2.2,3.2,3.1c2.1,0.9,4.9,1.6,8.1,2c3.2,0.4,6.4,0.8,9.7,0.8
		C38,211.9,44.2,211.1,50.6,209.6z"/>
	<path class="st1" d="M199.3,182.8c-3.8-3.2-6.2-7.8-7.2-13.5c0-0.4-0.1-1.1-0.3-1.9c-0.4-3.3-1-5.7-1.6-6.9
		c-0.6-1.2-1.8-1.8-3.6-1.8c-3.4,0-8.7,1.8-15.5,5.2c-6.9,3.6-15.3,8.9-25.3,16.1c-4.1,3.1-7.1,5.1-8.8,6c-1.8,0.9-3.3,1.2-4.9,1.2
		c-1.7,0-3.1-0.7-4.2-2c-1.1-1.3-1.7-2.8-1.7-4.3c0-2.3,1.3-6.7,3.9-13c2.6-6.3,6.3-14.2,11.3-23.5c5-9.3,11-19.2,17.9-29.8
		c2.9-4.3,7.6-10.9,14.1-19.8c6.6-8.9,11.7-15.4,15.2-19.8c3.1-3.7,6.2-7.2,9.6-10.9c3.3-3.7,6.9-7.1,10.7-10.3
		c3.8-3.2,6.8-4.9,8.9-4.9c1.6,0,2.8,0.4,3.6,1.3c0.9,0.9,1.3,2,1.3,3.2c0,1.7-1.1,3.1-3.3,4.1c-3,1.3-8.2,6.2-15.5,14.8
		c-7.3,8.6-15.3,18.5-23.8,30.1c-8.4,11.5-15.5,22-21.3,31.5c-4,6.8-8.2,14.4-12.8,23.3c-4.6,8.8-6.8,13.8-6.8,14.8v0.1h0.1
		c0.2,0,1.2-0.7,3-1.9c5.8-4.3,12.1-8.3,18.9-12.2c6.8-3.9,12.1-6.4,15.9-7.7c4-1.2,7.2-1.8,9.9-1.8c0.6,0,1,0,1.4,0.1
		c4,0.6,6.9,1.9,8.6,4c1.8,2.1,3,5.8,3.8,10.8c0.2,1,0.4,2.4,0.9,4.3c0.2,1.4,0.4,2.3,0.4,2.6c1.9,4.9,5.9,7.3,11.8,7.3
		c2.3,0,5.2-0.6,8.7-1.6s6.9-2.4,10.4-4.1c3.4-1.7,6.6-3.4,9.2-5.2c0.1,0,0.2-0.1,0.3-0.2c4.1-2.9,6.9-4.8,8.3-5.8
		c1.4-1,2.6-1.6,3.2-1.9c0.7-0.3,1.3-0.4,2-0.4c1.3,0,2.4,0.4,3.3,1.2c0.9,0.9,1.3,1.9,1.3,3.1c0,0.7-0.2,1.4-0.6,2.2
		c-0.6,0.9-3.4,3.2-8.8,7.1c-5.3,3.9-11.4,7.3-18.3,10.5c-6.9,3.1-13.3,4.8-19.3,4.8C208,187.5,203.1,186,199.3,182.8z"/>
	<path class="st1" d="M266.1,186.4c-2.4-0.6-4.4-1.3-6.1-2.3c-1.7-1-3.2-2.2-4.7-3.8c-2.8-3-4.1-6.4-4.1-10.4
		c0-5.1,1.8-10.4,5.4-15.9c3.7-5.4,8.2-10,13.8-13.5c5.6-3.6,10.9-5.3,16.2-5.3c2.9,0,5.1,0.4,6.9,1.2c1.8,0.9,3.1,2.1,4.1,3.9
		c0.6,1.1,0.9,1.9,1.1,2.6c0.1,0.7,0.2,1.7,0.2,3.2c0,1.7-0.1,2.8-0.2,3.4c-0.2,0.7-0.6,1.7-1.2,3.1c-2.1,4.1-6.2,7.6-12.2,10.4
		c-6,2.9-12.8,4.7-20.3,5.1l-3.9,0.3c0,3.1,1,5.4,3.1,7c2.1,1.4,5.8,2.2,11.2,2.2c5.6,0,11.9-1.1,19.1-3.4c7.1-2.3,14.5-5.9,22-10.8
		c3-2.1,5.2-3.1,6.7-3.1c1.2,0,2.1,0.4,2.9,1.2c0.8,0.8,1.2,1.8,1.2,2.9c0,1.8-1.3,3.8-4.1,6c-2.8,2.2-6.3,4.4-10.7,6.7
		c-4.3,2.2-8.9,4.1-13.7,5.9c-4.8,1.7-8.9,2.8-12.5,3.4c-3.3,0.6-6.9,0.9-10.9,0.9C271.6,187.3,268.5,187,266.1,186.4z M271.9,158
		c5.1-1.3,9.4-3.2,12.9-5.6c3.4-2.3,5.1-4.4,5.1-6.3c0-1.1-0.9-1.7-2.6-1.7c-1.8,0-4,0.7-6.9,1.9c-2.9,1.2-5.6,2.9-8.1,4.9
		c-1.7,1.3-3.2,2.8-4.7,4.4c-1.6,1.7-2.2,2.7-2.2,3.2c0,0.2,0.2,0.3,0.6,0.3C266.4,159.2,268.4,158.9,271.9,158z"/>
	<path class="st1" d="M334.5,187.1c-8.7-1.9-13.9-6.8-15.5-14.5c-0.4-1.7-0.7-4.2-0.7-7.7c0-5.1,0.3-9.3,1.1-12.7
		c1.9-8.2,5.8-18.4,11.7-30.4c5.9-12.1,13.4-25.4,22.7-40c6.7-10.8,12.1-18.5,16.2-23.3s7.6-7.2,10.1-7.2c1.2,0,2.3,0.4,3.3,1.4
		c0.9,1,1.4,2.3,1.4,3.9c0,1.9-0.4,3.6-1.4,5c-1,1.4-2.4,2.2-4.2,2.2c-0.8,0-1.4,0.1-1.8,0.2c-0.3,0.1-0.7,0.4-1,0.9
		c-2.2,2.8-6,8.4-11.4,16.9c-5.3,8.4-10,16.1-13.8,23c-10.1,17.9-17.1,32.9-20.9,44.9c-1.7,6.3-2.4,11.3-2.4,15
		c0,4.9,1.2,8.3,3.6,10.3c2.3,1.9,5.4,2.9,9.3,2.9c3.7,0,9.1-1.7,16.1-4.9c7-3.2,12.3-6.2,15.7-8.9c3.6-2.6,5.8-4.1,6.7-4.7
		s1.8-0.8,2.6-0.8c1.2,0,2.3,0.4,3.2,1.2c0.9,0.9,1.3,1.9,1.3,3.1c0,1.1-0.1,2-0.3,2.6c-0.7,1.2-3.7,3.6-9,7.2
		c-5.3,3.7-11.3,6.9-18,9.8s-12.4,4.3-17.4,4.3c-1.1,0.1-2.2,0.2-3.6,0.2C336.5,187.3,335.4,187.2,334.5,187.1z"/>
	<path class="st1" d="M375.8,184.3c-2.3-2-3.4-4.6-3.4-7.9c0-2.9,1.2-6.4,3.6-10.7c2.3-4.2,6.3-9.8,11.8-16.8c2.4-3,4.1-5,5.2-6
		c1.1-1,2.1-1.6,3-1.6c1.1,0,2,0.4,2.9,1.2c0.9,0.8,1.2,1.9,1.2,3.1c0,0.3-0.4,1.1-1.2,2.4c-0.8,1.3-1.8,2.7-2.9,4.2
		c-4.9,6.8-8.4,12-10.7,15.8c-2.2,3.8-3.3,6.4-3.3,7.8c0,0.6,0.2,0.9,0.8,1.1c0.6,0.2,1.4,0.2,2.8,0.2c4.3,0,9.1-1.2,14.5-3.6
		c5.4-2.3,10.8-5.3,16-8.9c5.2-3.7,9.7-7.3,13.2-11.1c3.7-3.8,5.9-7,6.8-9.7c0.6-1.6,1.1-2.7,2-3.3c0.8-0.7,1.9-1,3.2-1
		c1.4,0,2.6,0.6,3.4,1.6c0.9,1,1.3,2.3,1.3,3.9c0,0.3,0,0.9-0.1,1.6c-0.1,0.6-0.1,1-0.1,1.3c0,1.8,1.1,3.4,3.2,5
		c2.1,1.6,5,2.8,8.6,3.7c3.6,0.9,7.4,1.3,11.7,1.3c3,0,5.7-0.1,7.9-0.4c2.2-0.3,4.7-0.8,7.2-1.3c2.4-0.6,4-0.8,4.9-0.8
		c1.3,0,2.4,0.3,3.2,1.1c0.9,0.8,1.2,1.9,1.2,3.4c0,1.9-0.8,3.2-2.4,4.1c-1.7,0.9-4.8,1.8-9.4,2.4c-3.9,0.7-8,1-12.4,1
		c-7.6,0-13.7-0.9-18.4-2.8c-4.8-1.9-8.6-4.3-11.4-7.7l-4.7,4.8c-7.4,7.4-15.9,13.5-25.2,18.3c-9.3,4.8-17.3,7.1-23.9,7.1
		C381.4,187.3,378.1,186.3,375.8,184.3z"/>
	<path class="st1" d="M499.3,186.4c-2.4-0.6-4.4-1.3-6.1-2.3c-1.7-1-3.2-2.2-4.7-3.8c-2.8-3-4.1-6.4-4.1-10.4
		c0-5.1,1.8-10.4,5.4-15.9c3.7-5.4,8.2-10,13.8-13.5c5.6-3.6,10.9-5.3,16.2-5.3c2.9,0,5.1,0.4,6.9,1.2c1.8,0.9,3.1,2.1,4.1,3.9
		c0.6,1.1,0.9,1.9,1.1,2.6c0.1,0.7,0.2,1.7,0.2,3.2c0,1.7-0.1,2.8-0.2,3.4s-0.6,1.7-1.2,3.1c-2.1,4.1-6.2,7.6-12.2,10.4
		c-6,2.9-12.8,4.7-20.3,5.1l-3.9,0.3c0,3.1,1,5.4,3.1,7c2.1,1.4,5.8,2.2,11.2,2.2c5.6,0,11.9-1.1,19.1-3.4c7.1-2.3,14.5-5.9,22-10.8
		c3-2.1,5.2-3.1,6.7-3.1c1.2,0,2.1,0.4,2.9,1.2c0.8,0.8,1.2,1.8,1.2,2.9c0,1.8-1.3,3.8-4.1,6c-2.8,2.2-6.3,4.4-10.7,6.7
		c-4.3,2.2-8.9,4.1-13.7,5.9c-4.8,1.8-8.9,2.8-12.5,3.4c-3.3,0.6-6.9,0.9-10.9,0.9C504.7,187.3,501.7,187,499.3,186.4z M505.1,158
		c5.1-1.3,9.4-3.2,12.9-5.6c3.4-2.3,5.1-4.4,5.1-6.3c0-1.1-0.9-1.7-2.6-1.7c-1.8,0-4,0.7-6.9,1.9c-2.9,1.2-5.6,2.9-8.1,4.9
		c-1.7,1.3-3.2,2.8-4.7,4.4c-1.6,1.7-2.2,2.7-2.2,3.2c0,0.2,0.2,0.3,0.6,0.3C499.6,159.2,501.6,158.9,505.1,158z"/>
	<path class="st1" d="M510.8,255.1c-3.4-3.1-5.2-7.1-5.2-12.1c0-8.4,4.6-17,13.5-25.5c7.6-7.2,18.1-14.7,31.8-22.3
		c13.7-7.7,29.1-14.7,46.3-20.9c2.4-6,4.3-10.5,5.4-13.9s2-6.6,2.7-9.7l-0.1,0.1c-3.3,2.6-7,5.9-11.1,9.8
		c-6.2,5.8-11.4,10.3-15.4,13.5c-4,3.2-7.4,5.6-10.2,6.9s-5.4,2.1-7.8,2.1c-3,0-5.3-1.1-7.2-3.4s-2.8-5.3-2.8-9
		c0-3.9,1.2-8.7,3.6-14.2c2.3-5.6,5-10.4,8.1-14.5c3.1-4.2,5.4-6.2,7.2-6.2c1.1,0,2.1,0.3,3,1.1c0.9,0.7,1.3,1.6,1.3,2.6
		c0,1.3-0.8,3-2.2,4.9c-3.1,3.9-5.8,8.4-8,13.4c-2.2,5-3.3,9.1-3.3,12.2c0,1.1,0.1,2,0.2,2.6c0.2,0.6,0.6,0.9,1,0.9
		c1.2,0,3.7-1.2,7.3-3.8c3.6-2.4,7.9-6.1,13-10.9c6.8-6.2,11.2-10.2,13.2-12c2-1.8,3.8-3.2,5.4-4.3c3.1-2,5.7-3.1,7.8-3.1
		c1.9,0,3.4,0.8,4.8,2.3c1.3,1.6,2,3.8,2,6.7c0,2-0.4,4.7-1.2,7.9c-0.8,3.2-2.2,7.8-4.1,13.8c14.2-3.9,24.3-6.6,30.4-8
		c1.9-0.4,3.2-0.7,4.1-0.7c1.6,0,2.8,0.6,3.7,1.6c0.9,1,1.3,2.1,1.3,3.2c0,1.1-0.3,2.1-1,3c-0.6,0.6-2.1,1.2-4.8,2
		c-2.7,0.8-6.8,1.9-12.4,3.4c-12.3,3.2-21.1,5.9-26.3,7.7c-5.8,11.8-11.3,21.5-16.7,29.4c-5.3,7.9-11.9,15.7-19.9,23.7
		c-16.8,16.5-31.3,24.8-43.5,24.8C518.8,259.7,514.3,258.2,510.8,255.1z M529.2,249.3c1-0.2,2.2-0.6,3.9-1.1c5-2,10.5-5.4,16.7-10.2
		c6-4.9,12-10.5,17.9-17.2c5.9-6.7,11.1-13.5,15.8-20.8c1.8-2.8,3.4-5.4,4.9-8.1c1.4-2.7,2.2-4.2,2.2-4.7l-0.1-0.1h-0.1
		c-0.8,0-4,1.2-9.7,3.8c-5.7,2.4-12,5.6-19.1,9.3c-7.1,3.7-13.4,7.4-19.1,11.1c-6.7,4.3-12,8.6-16.1,12.4c-4.1,3.9-7,7.4-8.8,10.5
		c-1.8,3.1-2.7,6-2.7,8.4c0,2.2,0.8,3.9,2.3,5.1c1.6,1.2,3.8,1.8,6.7,1.8h1.3C526.8,249.6,528.2,249.5,529.2,249.3z"/>
</g>
</svg>
