<?xml version="1.0" encoding="UTF-8"?>
<svg id="Layer_1" xmlns="http://www.w3.org/2000/svg" version="1.1" viewBox="0 0 606 294">
  <!-- Generator: Adobe Illustrator 29.0.0, SVG Export Plug-In . SVG Version: 2.1.0 Build 186)  -->
  <defs>
    <style>
      .st0, .st1 {
        fill: #ffeba7;
      }

      .st1 {
        fill-rule: evenodd;
      }
    </style>
  </defs>
  <path id="ig_d_20" class="st1" d="M423.6,76.5v84.7c-10.1-14.6-25.7-23.4-47.5-23.4-38.8,0-68.5,30-68.5,74.9s29.7,73.5,68.5,73.5,38-9,48-24.2l.8,21.5h34.8V76.5h-36.1ZM384.3,255.2c-23.6,0-39.3-17.3-39.3-43s15.7-43.5,39.3-43.5,39.3,17.5,39.3,43.3-15.9,43.3-39.3,43.3Z"/>
  <g>
    <path class="st0" d="M.5,264.6l17.3-27.7c12.6,9.1,28.6,15.9,47.5,15.9s18.4-4.4,18.4-10.7-10.4-11.5-25-15.4c-29.1-7.1-51.6-15.1-51.9-43.1-.3-26.9,22-46.1,55.5-46.1s40.4,7.1,56,17.6l-16.2,28.6c-12.9-8-27.7-12.6-39.8-12.6s-16.8,3.6-16.8,8.5c0,7.7,5.8,9.9,25,15.1,24.4,6.3,51.6,14.6,51.6,45.6s-22.8,45.9-57.7,45.9-47-7.7-64-21.4Z"/>
    <path class="st0" d="M140.4,211.6c0-42.8,31.6-73.9,73-73.9s70.6,33.8,70.6,87.3h-114.1l-29.5-13.5ZM182.1,196.2h63.4c-3.8-14-14.3-23.1-30.5-23.1s-27.7,8.8-33,23.1Z"/>
  </g>
  <polygon class="st1" points="169.8 222.8 169.8 256.4 284.8 256.4 284.8 285.8 140.4 285.8 140.4 209.3 169.8 222.8"/>
  <path class="st1" d="M140.4,208"/>
  <path class="st1" d="M498.3,73.7h46.9v-11.1l-29.2.2,12.5-13.2c9.4-9.6,15.8-17.5,15.8-26.9s-9-18.6-22.4-18.6-22.7,8-22.7,20.1l13.8,1.1c0-5.9,3.6-10.1,9.3-10.1s8.5,3.2,8.5,8.4-7.7,14.7-11.1,18.6l-21.2,22.9v8.7h0Z"/>
  <path class="st0" d="M577.2,4.1c-15.9,0-26.5,14.1-26.5,35.3s10.5,35.3,26.5,35.3,26-14.1,26-35.3-10.5-35.3-26-35.3ZM577.2,63.5c-7.4,0-12.5-9.7-12.5-24.1s5.1-24.1,12.5-24.1,12.4,9.7,12.4,24.1-5,24.1-12.4,24.1Z"/>
</svg>